<?xml version="1.0" encoding="UTF-8" standalone="no"?>
<svg
   width="24"
   height="24"
   version="1.1"
   id="svg11"
   sodipodi:docname="battery-missing.svg"
   inkscape:version="1.1.1 (3bf5ae0d25, 2021-09-20, custom)"
   xmlns:inkscape="http://www.inkscape.org/namespaces/inkscape"
   xmlns:sodipodi="http://sodipodi.sourceforge.net/DTD/sodipodi-0.dtd"
   xmlns="http://www.w3.org/2000/svg"
   xmlns:svg="http://www.w3.org/2000/svg">
  <sodipodi:namedview
     id="namedview13"
     pagecolor="#ffffff"
     bordercolor="#666666"
     borderopacity="1.0"
     inkscape:pageshadow="2"
     inkscape:pageopacity="0.0"
     inkscape:pagecheckerboard="0"
     showgrid="false"
     inkscape:zoom="26.166667"
     inkscape:cx="11.980892"
     inkscape:cy="11.980892"
     inkscape:window-width="1920"
     inkscape:window-height="1050"
     inkscape:window-x="0"
     inkscape:window-y="30"
     inkscape:window-maximized="1"
     inkscape:current-layer="svg11" />
  <defs
     id="defs3">
    <style
       id="current-color-scheme"
       type="text/css">
   .ColorScheme-Text { color:#dfdfdf; } .ColorScheme-Highlight { color:#4285f4; }
  </style>
  </defs>
  <path
     style="opacity:0.3;fill:#e6db74;fill-opacity:1"
     class="ColorScheme-Text"
     d="M 10,5 V 6 H 7 v 12 c 0,0.55 0.446,1 1,1 h 8 c 0.554,0 1,-0.45 1,-1 V 6 H 14 V 5 Z m 2,3 c 1.645,0 3,1.355 3,3 0,1.2567 -0.893,2.1406 -2,2.584 V 17 H 10 V 12 H 9 V 11 C 9,9.355 10.355,8 12,8 Z"
     id="path5" />
  <path
     style="fill:#e6db74;fill-opacity:1"
     class="ColorScheme-Text"
     d="m 12,9 a 2,2 0 0 0 -2,2 h 1 a 1,1 0 0 1 1,-1 1,1 0 0 1 1,1 1,1 0 0 1 -1,1 h -1 v 2 h 1 v -1 a 2,2 0 0 0 2,-2 2,2 0 0 0 -2,-2 z m -1,6 v 1 h 1 v -1 z"
     id="path7" />
</svg>
